<svg width="520" height="88" viewBox="0 0 520 88" fill="none" xmlns="http://www.w3.org/2000/svg">
<path d="M32.8887 2.13146C34.3129 1.56455 35.9112 1.56696 37.7323 1.56971L47.9602 1.5701V6.96356H38.1188C35.6817 6.96356 35.1953 7.00888 34.8391 7.15068C34.424 7.31591 34.0565 7.58398 33.7704 7.93031C33.5248 8.2275 33.3286 8.68012 32.5578 11.0202L30.3413 17.7505H50.6246C52.0962 17.7505 53.2891 18.9578 53.2891 20.4472C53.2891 21.9366 52.0962 23.1439 50.6246 23.1439H2.66446C1.19292 23.1439 0 21.9366 0 20.4472C0 18.9578 1.19292 17.7505 2.66445 17.7505H24.7241L27.6243 8.94343C28.1976 7.19401 28.7007 5.65856 29.6825 4.47036C30.5409 3.43139 31.6434 2.62717 32.8887 2.13146Z" fill="white"/>
<path d="M2.66445 27.189L7.30258 79.9999C7.54638 82.7759 7.66828 84.1639 8.28069 85.2138C8.82001 86.1384 9.61974 86.8791 10.5775 87.3409C11.665 87.8654 13.0418 87.8654 15.7954 87.8654H28.0739C26.3525 85.8366 25.3123 83.1985 25.3123 80.3145C25.3123 78.9395 25.7745 77.6737 26.5503 76.6676C24.1875 74.9553 22.6479 72.1538 22.6479 68.9883C22.6479 65.7705 24.2388 62.9289 26.6679 61.2251C25.8195 60.1494 25.3123 58.7859 25.3123 57.3025C25.3123 45.1393 35.0545 35.2792 47.072 35.2792H49.9141L50.6246 27.189H2.66445Z" fill="white"/>
<path fill-rule="evenodd" clip-rule="evenodd" d="M47.072 39.3243C37.2618 39.3243 29.309 47.3734 29.309 57.3025C29.309 58.5436 30.3031 59.5497 31.5294 59.5497H80.3777C81.604 59.5497 82.5981 58.5436 82.5981 57.3025C82.5981 47.3734 74.6453 39.3243 64.8351 39.3243H47.072ZM46.628 46.0661C46.628 46.8108 46.0315 47.4145 45.2957 47.4145C44.56 47.4145 43.9635 46.8108 43.9635 46.0661C43.9635 45.3214 44.56 44.7177 45.2957 44.7177C46.0315 44.7177 46.628 45.3214 46.628 46.0661ZM43.9635 48.7628C43.9635 49.5075 43.367 50.1112 42.6313 50.1112C41.8955 50.1112 41.299 49.5075 41.299 48.7628C41.299 48.0181 41.8955 47.4145 42.6313 47.4145C43.367 47.4145 43.9635 48.0181 43.9635 48.7628ZM49.2924 48.7628C49.2924 49.5075 48.696 50.1112 47.9602 50.1112C47.2244 50.1112 46.628 49.5075 46.628 48.7628C46.628 48.0181 47.2244 47.4145 47.9602 47.4145C48.696 47.4145 49.2924 48.0181 49.2924 48.7628ZM51.9569 46.0661C51.9569 46.8108 51.3604 47.4145 50.6246 47.4145C49.8889 47.4145 49.2924 46.8108 49.2924 46.0661C49.2924 45.3214 49.8889 44.7177 50.6246 44.7177C51.3604 44.7177 51.9569 45.3214 51.9569 46.0661ZM54.6213 48.7628C54.6213 49.5075 54.0249 50.1112 53.2891 50.1112C52.5533 50.1112 51.9569 49.5075 51.9569 48.7628C51.9569 48.0181 52.5533 47.4145 53.2891 47.4145C54.0249 47.4145 54.6213 48.0181 54.6213 48.7628ZM57.2858 46.0661C57.2858 46.8108 56.6893 47.4145 55.9536 47.4145C55.2178 47.4145 54.6213 46.8108 54.6213 46.0661C54.6213 45.3214 55.2178 44.7177 55.9536 44.7177C56.6893 44.7177 57.2858 45.3214 57.2858 46.0661ZM59.9502 48.7628C59.9502 49.5075 59.3538 50.1112 58.618 50.1112C57.8822 50.1112 57.2858 49.5075 57.2858 48.7628C57.2858 48.0181 57.8822 47.4145 58.618 47.4145C59.3538 47.4145 59.9502 48.0181 59.9502 48.7628ZM62.6147 46.0661C62.6147 46.8108 62.0182 47.4145 61.2825 47.4145C60.5467 47.4145 59.9502 46.8108 59.9502 46.0661C59.9502 45.3214 60.5467 44.7177 61.2825 44.7177C62.0182 44.7177 62.6147 45.3214 62.6147 46.0661ZM65.2791 48.7628C65.2791 49.5075 64.6827 50.1112 63.9469 50.1112C63.2111 50.1112 62.6147 49.5075 62.6147 48.7628C62.6147 48.0181 63.2111 47.4145 63.9469 47.4145C64.6827 47.4145 65.2791 48.0181 65.2791 48.7628ZM67.9436 46.0661C67.9436 46.8108 67.3471 47.4145 66.6114 47.4145C65.8756 47.4145 65.2791 46.8108 65.2791 46.0661C65.2791 45.3214 65.8756 44.7177 66.6114 44.7177C67.3471 44.7177 67.9436 45.3214 67.9436 46.0661ZM70.6081 48.7628C70.6081 49.5075 70.0116 50.1112 69.2758 50.1112C68.5401 50.1112 67.9436 49.5075 67.9436 48.7628C67.9436 48.0181 68.5401 47.4145 69.2758 47.4145C70.0116 47.4145 70.6081 48.0181 70.6081 48.7628Z" fill="white"/>
<path d="M31.9735 63.5948C29.0304 63.5948 26.6445 66.0096 26.6445 68.9883C26.6445 71.967 29.0304 74.3817 31.9735 74.3817H79.9336C82.8767 74.3817 85.2626 71.967 85.2626 68.9883C85.2626 66.0096 82.8767 63.5948 79.9336 63.5948H31.9735Z" fill="white"/>
<path d="M29.309 80.3145C29.309 79.272 30.144 78.4268 31.1741 78.4268H80.733C81.7631 78.4268 82.5981 79.272 82.5981 80.3145C82.5981 84.4847 79.2579 87.8654 75.1376 87.8654H36.7695C32.6492 87.8654 29.309 84.4847 29.309 80.3145Z" fill="white"/>
<path d="M502.637 22.2619V37.7421H495.21V2.03992H502.428V15.6897H502.741C503.346 14.1092 504.322 12.8715 505.67 11.9766C507.018 11.0701 508.709 10.6168 510.743 10.6168C512.603 10.6168 514.224 11.0236 515.607 11.8371C517.001 12.639 518.082 13.7954 518.849 15.3062C519.628 16.8054 520.011 18.601 520 20.6929V37.7421H512.573V22.0178C512.585 20.3675 512.167 19.0833 511.318 18.1652C510.482 17.2471 509.308 16.788 507.797 16.788C506.786 16.788 505.891 17.003 505.112 17.433C504.345 17.863 503.741 18.4906 503.299 19.3158C502.869 20.1293 502.648 21.1113 502.637 22.2619Z" fill="white"/>
<path d="M490.906 18.6009L484.108 19.0193C483.991 18.4382 483.741 17.9152 483.358 17.4503C482.974 16.9738 482.469 16.5961 481.841 16.3172C481.225 16.0267 480.487 15.8814 479.627 15.8814C478.477 15.8814 477.506 16.1254 476.716 16.6136C475.926 17.09 475.531 17.7292 475.531 18.5312C475.531 19.1704 475.786 19.7108 476.298 20.1524C476.809 20.594 477.687 20.9485 478.93 21.2158L483.776 22.192C486.38 22.7266 488.321 23.5866 489.599 24.7721C490.877 25.9575 491.517 27.5148 491.517 29.444C491.517 31.1989 490.999 32.7388 489.965 34.0637C488.942 35.3886 487.536 36.4229 485.746 37.1667C483.968 37.8989 481.917 38.265 479.593 38.265C476.048 38.265 473.224 37.527 471.12 36.051C469.028 34.5635 467.802 32.5413 467.442 29.9845L474.746 29.6009C474.967 30.6818 475.502 31.5069 476.35 32.0764C477.198 32.6342 478.285 32.9132 479.61 32.9132C480.912 32.9132 481.958 32.6633 482.748 32.1635C483.55 31.6522 483.957 30.9956 483.968 30.1937C483.957 29.5196 483.672 28.9675 483.114 28.5375C482.556 28.0959 481.696 27.7589 480.534 27.5264L475.897 26.6025C473.282 26.0795 471.335 25.173 470.057 23.883C468.79 22.593 468.157 20.9485 468.157 18.9495C468.157 17.2295 468.622 15.7477 469.551 14.5042C470.493 13.2607 471.812 12.3019 473.508 11.6278C475.217 10.9537 477.216 10.6167 479.505 10.6167C482.887 10.6167 485.549 11.3314 487.49 12.7609C489.442 14.1904 490.581 16.1371 490.906 18.6009Z" fill="white"/>
<path d="M456.235 37.7417V10.9651H463.661V37.7417H456.235ZM459.965 7.51339C458.861 7.51339 457.914 7.1473 457.124 6.41512C456.345 5.67133 455.956 4.78226 455.956 3.74792C455.956 2.7252 456.345 1.84775 457.124 1.11557C457.914 0.371776 458.861 -0.00012207 459.965 -0.00012207C461.069 -0.00012207 462.011 0.371776 462.789 1.11557C463.579 1.84775 463.975 2.7252 463.975 3.74792C463.975 4.78226 463.579 5.67133 462.789 6.41512C462.011 7.1473 461.069 7.51339 459.965 7.51339Z" fill="white"/>
<path d="M429.013 37.7425V33.3146L442.123 17.0847V16.8929H429.466V10.9658H451.066V15.7947L438.758 31.6236V31.8154H451.519V37.7425H429.013Z" fill="white"/>
<path d="M409.321 38.2476C407.612 38.2476 406.09 37.9512 404.754 37.3585C403.417 36.7542 402.359 35.8651 401.581 34.6913C400.814 33.5059 400.43 32.0299 400.43 30.2634C400.43 28.7758 400.703 27.5264 401.25 26.5153C401.796 25.5042 402.54 24.6907 403.481 24.0748C404.422 23.4588 405.491 22.9939 406.689 22.6801C407.897 22.3664 409.164 22.1455 410.489 22.0177C412.046 21.855 413.301 21.7039 414.254 21.5645C415.207 21.4134 415.899 21.1926 416.329 20.902C416.759 20.6115 416.974 20.1815 416.974 19.612V19.5074C416.974 18.4033 416.625 17.5491 415.928 16.9448C415.242 16.3404 414.266 16.0383 412.999 16.0383C411.663 16.0383 410.599 16.3346 409.809 16.9273C409.019 17.5084 408.496 18.2406 408.24 19.1239L401.372 18.566C401.72 16.939 402.406 15.5327 403.429 14.3473C404.451 13.1503 405.77 12.2321 407.386 11.5929C409.013 10.9421 410.896 10.6167 413.034 10.6167C414.522 10.6167 415.945 10.791 417.305 11.1397C418.676 11.4883 419.891 12.0287 420.948 12.7609C422.018 13.4931 422.86 14.4345 423.476 15.585C424.092 16.724 424.4 18.0895 424.4 19.6817V37.742H417.357V34.0289H417.148C416.718 34.8656 416.143 35.6036 415.422 36.2428C414.702 36.8704 413.836 37.3643 412.825 37.7246C411.814 38.0732 410.646 38.2476 409.321 38.2476ZM411.448 33.1224C412.54 33.1224 413.505 32.9073 414.342 32.4773C415.178 32.0357 415.835 31.443 416.311 30.6992C416.788 29.9554 417.026 29.1128 417.026 28.1715V25.3299C416.794 25.481 416.474 25.6205 416.067 25.7483C415.672 25.8645 415.225 25.9749 414.725 26.0795C414.225 26.1725 413.726 26.2597 413.226 26.341C412.726 26.4108 412.273 26.4747 411.866 26.5328C410.994 26.6606 410.233 26.864 409.582 27.1429C408.932 27.4219 408.426 27.7996 408.066 28.2761C407.705 28.7409 407.525 29.322 407.525 30.0193C407.525 31.0304 407.891 31.8033 408.624 32.3379C409.367 32.8609 410.309 33.1224 411.448 33.1224Z" fill="white"/>
<path d="M380.821 30.0369L380.838 21.1288H381.919L390.496 10.9655H399.021L387.498 24.4235H385.737L380.821 30.0369ZM374.092 37.7421V2.03992H381.518V37.7421H374.092ZM390.827 37.7421L382.948 26.0797L387.899 20.8324L399.526 37.7421H390.827Z" fill="white"/>
<path d="M369.663 10.9652V16.5436H353.538V10.9652H369.663ZM357.199 4.54993H364.625V29.5136C364.625 30.1993 364.73 30.7339 364.939 31.1174C365.148 31.4893 365.439 31.7508 365.81 31.9019C366.194 32.053 366.636 32.1285 367.135 32.1285C367.484 32.1285 367.833 32.0995 368.181 32.0413C368.53 31.9716 368.797 31.9193 368.983 31.8844L370.151 37.4106C369.779 37.5268 369.256 37.6605 368.582 37.8116C367.908 37.9743 367.089 38.0731 366.124 38.1079C364.335 38.1777 362.766 37.9394 361.417 37.3932C360.081 36.847 359.041 35.9986 358.297 34.848C357.553 33.6975 357.187 32.2447 357.199 30.4898V4.54993Z" fill="white"/>
<path d="M339.258 38.265C336.504 38.265 334.133 37.7072 332.146 36.5915C330.17 35.4641 328.648 33.872 327.578 31.8149C326.509 29.7462 325.975 27.2998 325.975 24.4757C325.975 21.7213 326.509 19.304 327.578 17.2237C328.648 15.1434 330.153 13.5222 332.094 12.36C334.046 11.1978 336.335 10.6167 338.962 10.6167C340.729 10.6167 342.373 10.9014 343.895 11.4709C345.43 12.0287 346.766 12.8713 347.905 13.9986C349.056 15.126 349.95 16.5438 350.59 18.2522C351.229 19.949 351.548 21.9363 351.548 24.2142V26.2539H328.938V21.6516H344.558C344.558 20.5824 344.325 19.6352 343.861 18.8101C343.396 17.9849 342.751 17.3399 341.926 16.875C341.112 16.3986 340.165 16.1603 339.084 16.1603C337.957 16.1603 336.957 16.4218 336.086 16.9448C335.226 17.4561 334.552 18.1476 334.063 19.0193C333.575 19.8793 333.325 20.8381 333.314 21.8957V26.2713C333.314 27.5962 333.558 28.7409 334.046 29.7055C334.546 30.6701 335.249 31.4139 336.155 31.9369C337.062 32.4599 338.137 32.7214 339.38 32.7214C340.206 32.7214 340.961 32.6052 341.647 32.3727C342.332 32.1403 342.919 31.7917 343.407 31.3268C343.895 30.8619 344.267 30.2924 344.523 29.6184L351.392 30.0716C351.043 31.7219 350.328 33.163 349.247 34.3949C348.178 35.6152 346.795 36.5682 345.098 37.2539C343.413 37.928 341.466 38.265 339.258 38.265Z" fill="white"/>
<path d="M304.707 47.7837C303.766 47.7837 302.883 47.7082 302.058 47.5571C301.244 47.4176 300.57 47.2375 300.035 47.0167L301.709 41.4731C302.581 41.7404 303.365 41.8857 304.062 41.9089C304.771 41.9322 305.382 41.7694 305.893 41.4208C306.416 41.0721 306.84 40.4794 307.165 39.6427L307.601 38.5095L297.996 10.9658H305.806L311.349 30.6299H311.628L317.224 10.9658H325.086L314.679 40.6363C314.179 42.0774 313.499 43.3326 312.639 44.4018C311.791 45.4826 310.716 46.3136 309.414 46.8947C308.113 47.4874 306.544 47.7837 304.707 47.7837Z" fill="white"/>
<path d="M270.646 37.7421V10.9654H277.846V15.6374H278.125C278.613 13.9755 279.433 12.7203 280.583 11.8719C281.734 11.0119 283.059 10.5819 284.558 10.5819C284.93 10.5819 285.331 10.6052 285.761 10.6516C286.191 10.6981 286.568 10.762 286.894 10.8434V17.433C286.545 17.3284 286.063 17.2354 285.447 17.154C284.831 17.0727 284.267 17.032 283.756 17.032C282.663 17.032 281.687 17.2703 280.827 17.7468C279.979 18.2116 279.305 18.8625 278.805 19.6992C278.317 20.536 278.073 21.5006 278.073 22.5931V37.7421H270.646Z" fill="white"/>
<path d="M250.789 38.2476C249.081 38.2476 247.558 37.9512 246.222 37.3585C244.885 36.7542 243.828 35.8651 243.049 34.6913C242.282 33.5059 241.899 32.0299 241.899 30.2634C241.899 28.7758 242.172 27.5264 242.718 26.5153C243.264 25.5042 244.008 24.6907 244.949 24.0748C245.891 23.4588 246.96 22.9939 248.157 22.6801C249.366 22.3664 250.632 22.1455 251.957 22.0177C253.515 21.855 254.77 21.7039 255.723 21.5645C256.676 21.4134 257.367 21.1926 257.797 20.902C258.227 20.6115 258.442 20.1815 258.442 19.612V19.5074C258.442 18.4033 258.094 17.5491 257.396 16.9448C256.711 16.3404 255.734 16.0383 254.468 16.0383C253.131 16.0383 252.068 16.3346 251.277 16.9273C250.487 17.5084 249.964 18.2406 249.709 19.1239L242.84 18.566C243.189 16.939 243.874 15.5327 244.897 14.3473C245.92 13.1503 247.239 12.2321 248.854 11.5929C250.481 10.9421 252.364 10.6167 254.503 10.6167C255.99 10.6167 257.414 10.791 258.774 11.1397C260.145 11.4883 261.359 12.0287 262.417 12.7609C263.486 13.4931 264.329 14.4345 264.945 15.585C265.561 16.724 265.869 18.0895 265.869 19.6817V37.742H258.826V34.0289H258.617C258.187 34.8656 257.611 35.6036 256.891 36.2428C256.17 36.8704 255.304 37.3643 254.293 37.7246C253.282 38.0732 252.114 38.2476 250.789 38.2476ZM252.916 33.1224C254.009 33.1224 254.973 32.9073 255.81 32.4773C256.647 32.0357 257.303 31.443 257.78 30.6992C258.256 29.9554 258.495 29.1128 258.495 28.1715V25.3299C258.262 25.481 257.943 25.6205 257.536 25.7483C257.141 25.8645 256.693 25.9749 256.194 26.0795C255.694 26.1725 255.194 26.2597 254.694 26.341C254.195 26.4108 253.741 26.4747 253.335 26.5328C252.463 26.6606 251.702 26.864 251.051 27.1429C250.4 27.4219 249.894 27.7996 249.534 28.2761C249.174 28.7409 248.994 29.322 248.994 30.0193C248.994 31.0304 249.36 31.8033 250.092 32.3379C250.836 32.8609 251.777 33.1224 252.916 33.1224Z" fill="white"/>
<path d="M238.181 2.03992V37.7421H230.755V2.03992H238.181Z" fill="white"/>
<path d="M186.965 37.742V10.9654H194.043V15.6896H194.357C194.915 14.1207 195.844 12.883 197.146 11.9764C198.448 11.0699 200.005 10.6167 201.818 10.6167C203.654 10.6167 205.217 11.0758 206.507 11.9939C207.797 12.9004 208.657 14.1323 209.087 15.6896H209.366C209.913 14.1555 210.9 12.9294 212.33 12.0113C213.771 11.0816 215.474 10.6167 217.438 10.6167C219.936 10.6167 221.964 11.4128 223.522 13.005C225.091 14.5855 225.875 16.8286 225.875 19.734V37.742H218.466V21.1984C218.466 19.7108 218.071 18.5951 217.281 17.8513C216.491 17.1075 215.503 16.7356 214.317 16.7356C212.969 16.7356 211.917 17.1656 211.162 18.0256C210.407 18.874 210.029 19.9955 210.029 21.3901V37.742H202.829V21.0415C202.829 19.7282 202.451 18.6822 201.696 17.9036C200.952 17.1249 199.97 16.7356 198.75 16.7356C197.925 16.7356 197.181 16.9448 196.518 17.3632C195.868 17.7699 195.35 18.3452 194.967 19.089C194.583 19.8212 194.392 20.6812 194.392 21.669V37.742H186.965Z" fill="white"/>
<path d="M169.937 38.265C167.229 38.265 164.888 37.6897 162.912 36.5392C160.948 35.377 159.431 33.7615 158.362 31.6929C157.293 29.6126 156.758 27.201 156.758 24.4583C156.758 21.6923 157.293 19.275 158.362 17.2063C159.431 15.126 160.948 13.5105 162.912 12.36C164.888 11.1978 167.229 10.6167 169.937 10.6167C172.645 10.6167 174.981 11.1978 176.945 12.36C178.921 13.5105 180.443 15.126 181.513 17.2063C182.582 19.275 183.116 21.6923 183.116 24.4583C183.116 27.201 182.582 29.6126 181.513 31.6929C180.443 33.7615 178.921 35.377 176.945 36.5392C174.981 37.6897 172.645 38.265 169.937 38.265ZM169.972 32.5122C171.204 32.5122 172.233 32.1635 173.058 31.4662C173.883 30.7573 174.505 29.7927 174.923 28.5724C175.353 27.3521 175.568 25.9633 175.568 24.406C175.568 22.8487 175.353 21.4599 174.923 20.2396C174.505 19.0193 173.883 18.0547 173.058 17.3457C172.233 16.6368 171.204 16.2823 169.972 16.2823C168.729 16.2823 167.683 16.6368 166.834 17.3457C165.997 18.0547 165.364 19.0193 164.934 20.2396C164.516 21.4599 164.306 22.8487 164.306 24.406C164.306 25.9633 164.516 27.3521 164.934 28.5724C165.364 29.7927 165.997 30.7573 166.834 31.4662C167.683 32.1635 168.729 32.5122 169.972 32.5122Z" fill="white"/>
<path d="M137.99 38.2476C136.281 38.2476 134.759 37.9512 133.422 37.3585C132.086 36.7542 131.028 35.8651 130.249 34.6913C129.482 33.5059 129.099 32.0299 129.099 30.2634C129.099 28.7758 129.372 27.5264 129.918 26.5153C130.464 25.5042 131.208 24.6907 132.15 24.0748C133.091 23.4588 134.16 22.9939 135.357 22.6801C136.566 22.3664 137.833 22.1455 139.158 22.0177C140.715 21.855 141.97 21.7039 142.923 21.5645C143.876 21.4134 144.568 21.1926 144.998 20.902C145.428 20.6115 145.643 20.1815 145.643 19.612V19.5074C145.643 18.4033 145.294 17.5491 144.597 16.9448C143.911 16.3404 142.935 16.0383 141.668 16.0383C140.331 16.0383 139.268 16.3346 138.478 16.9273C137.687 17.5084 137.164 18.2406 136.909 19.1239L130.04 18.566C130.389 16.939 131.075 15.5327 132.097 14.3473C133.12 13.1503 134.439 12.2321 136.055 11.5929C137.682 10.9421 139.564 10.6167 141.703 10.6167C143.19 10.6167 144.614 10.791 145.974 11.1397C147.345 11.4883 148.56 12.0287 149.617 12.7609C150.686 13.4931 151.529 14.4345 152.145 15.585C152.761 16.724 153.069 18.0895 153.069 19.6817V37.742H146.026V34.0289H145.817C145.387 34.8656 144.812 35.6036 144.091 36.2428C143.37 36.8704 142.505 37.3643 141.494 37.7246C140.482 38.0732 139.314 38.2476 137.99 38.2476ZM140.116 33.1224C141.209 33.1224 142.173 32.9073 143.01 32.4773C143.847 32.0357 144.504 31.443 144.98 30.6992C145.457 29.9554 145.695 29.1128 145.695 28.1715V25.3299C145.462 25.481 145.143 25.6205 144.736 25.7483C144.341 25.8645 143.893 25.9749 143.394 26.0795C142.894 26.1725 142.394 26.2597 141.894 26.341C141.395 26.4108 140.942 26.4747 140.535 26.5328C139.663 26.6606 138.902 26.864 138.251 27.1429C137.6 27.4219 137.095 27.7996 136.734 28.2761C136.374 28.7409 136.194 29.322 136.194 30.0193C136.194 31.0304 136.56 31.8033 137.292 32.3379C138.036 32.8609 138.977 33.1224 140.116 33.1224Z" fill="white"/>
<path d="M100.963 8.2634V2.03992H130.285V8.2634H119.355V37.7421H111.893V8.2634H100.963Z" fill="white"/>
<path d="M188.999 79.663L189.016 70.7549H190.097L198.674 60.5916H207.199L195.676 74.0497H193.915L188.999 79.663ZM182.27 87.3683V49.646H189.696V87.3683H182.27ZM199.005 87.3683L191.126 75.7058L196.076 70.4585L207.704 87.3683H199.005Z" fill="black"/>
<path d="M166.528 87.8913C163.785 87.8913 161.426 87.3103 159.45 86.1481C157.486 84.9743 155.975 83.3472 154.918 81.2669C153.872 79.1866 153.349 76.7925 153.349 74.0846C153.349 71.3419 153.877 68.9362 154.935 66.8675C156.004 64.7872 157.521 63.1659 159.485 62.0037C161.449 60.8299 163.785 60.243 166.493 60.243C168.829 60.243 170.874 60.6672 172.629 61.5156C174.384 62.364 175.773 63.5553 176.796 65.0893C177.818 66.6234 178.382 68.4248 178.487 70.4935H171.479C171.281 69.157 170.758 68.082 169.91 67.2684C169.073 66.4433 167.975 66.0307 166.615 66.0307C165.464 66.0307 164.459 66.3445 163.599 66.9721C162.751 67.588 162.088 68.4887 161.612 69.6741C161.135 70.8596 160.897 72.2949 160.897 73.98C160.897 75.6884 161.129 77.1412 161.594 78.3382C162.071 79.5353 162.739 80.4476 163.599 81.0752C164.459 81.7027 165.464 82.0165 166.615 82.0165C167.463 82.0165 168.225 81.8422 168.899 81.4935C169.584 81.1449 170.148 80.6393 170.59 79.9769C171.043 79.3028 171.339 78.4951 171.479 77.5537H178.487C178.37 79.5992 177.813 81.4006 176.813 82.9579C175.825 84.5036 174.46 85.7123 172.716 86.5839C170.973 87.4555 168.91 87.8913 166.528 87.8913Z" fill="black"/>
<path d="M142.052 87.3682V60.5915H149.478V87.3682H142.052ZM145.783 57.1399C144.679 57.1399 143.731 56.7738 142.941 56.0416C142.163 55.2978 141.773 54.4087 141.773 53.3744C141.773 52.3517 142.163 51.4742 142.941 50.742C143.731 49.9982 144.679 49.6263 145.783 49.6263C146.887 49.6263 147.828 49.9982 148.607 50.742C149.397 51.4742 149.792 52.3517 149.792 53.3744C149.792 54.4087 149.397 55.2978 148.607 56.0416C147.828 56.7738 146.887 57.1399 145.783 57.1399Z" fill="black"/>
<path d="M137.092 49.646V87.3683H129.666V49.646H137.092Z" fill="black"/>
<path d="M113.924 87.8913C111.182 87.8913 108.822 87.3103 106.847 86.1481C104.882 84.9743 103.372 83.3472 102.314 81.2669C101.268 79.1866 100.745 76.7925 100.745 74.0846C100.745 71.3419 101.274 68.9362 102.331 66.8675C103.401 64.7872 104.917 63.1659 106.881 62.0037C108.846 60.8299 111.182 60.243 113.889 60.243C116.225 60.243 118.271 60.6672 120.026 61.5156C121.781 62.364 123.169 63.5553 124.192 65.0893C125.215 66.6234 125.779 68.4248 125.883 70.4935H118.875C118.678 69.157 118.155 68.082 117.306 67.2684C116.469 66.4433 115.371 66.0307 114.011 66.0307C112.861 66.0307 111.856 66.3445 110.996 66.9721C110.147 67.588 109.485 68.4887 109.008 69.6741C108.532 70.8596 108.293 72.2949 108.293 73.98C108.293 75.6884 108.526 77.1412 108.991 78.3382C109.467 79.5353 110.136 80.4476 110.996 81.0752C111.856 81.7027 112.861 82.0165 114.011 82.0165C114.86 82.0165 115.621 81.8422 116.295 81.4935C116.981 81.1449 117.544 80.6393 117.986 79.9769C118.439 79.3028 118.736 78.4951 118.875 77.5537H125.883C125.767 79.5992 125.209 81.4006 124.21 82.9579C123.222 84.5036 121.856 85.7123 120.113 86.5839C118.37 87.4555 116.307 87.8913 113.924 87.8913Z" fill="black"/>
</svg>
