<svg width="511" height="260" viewBox="0 0 511 260" fill="none" xmlns="http://www.w3.org/2000/svg">
<path d="M20.7624 54.8507C8.71163 54.8507 1.76468 46.6277 1.41025 38.4048H11.6889C12.4686 42.9416 16.2257 45.3518 20.7624 45.3518C24.9448 45.3518 27.922 43.4378 27.922 40.2479C27.922 37.4833 26.0081 35.4985 21.1878 34.1516L15.8712 32.5921C7.86098 30.3237 2.7571 25.3616 2.68622 17.7058C2.68622 8.41955 9.49138 2.81946 19.5574 2.81946C30.4031 2.81946 36.8538 10.6171 37.2083 18.1311H27.0005C25.8663 13.8779 22.6055 12.3183 19.5574 12.3183C15.9421 12.3183 13.1066 13.9488 13.0357 16.9969C12.9649 20.1159 15.1624 21.8172 19.3447 23.0223L25.2283 24.6527C33.4512 26.9211 38.2716 32.025 38.2716 39.8935C38.2716 48.4708 31.3246 54.8507 20.7624 54.8507Z" fill="white"/>
<path d="M62.0027 54.7798C51.157 54.7798 43.4303 46.9822 43.4303 36.2073C43.4303 25.6451 51.2988 17.7767 62.0736 17.7767C72.4231 17.7767 81.1423 25.2198 80.5752 38.5466H52.9292C53.2836 42.7289 56.4026 46.3442 62.4989 46.3442C65.9015 46.3442 68.8788 44.9264 70.013 42.4454H80.1498C78.0941 49.605 71.0054 54.7798 62.0027 54.7798ZM61.7901 25.6451C57.2533 25.6451 54.2051 28.1971 53.2836 32.1668H69.9421C68.8079 27.4173 65.0509 25.6451 61.7901 25.6451Z" fill="white"/>
<path d="M97.6003 54L81.9342 18.5564H92.6382L101.995 41.2403L111.352 18.5564H122.198L106.461 54H97.6003Z" fill="white"/>
<path d="M131.79 12.7437C128.458 12.7437 125.623 9.97907 125.623 6.57649C125.623 3.1739 128.458 0.409302 131.79 0.409302C135.263 0.409302 138.028 3.1739 138.028 6.57649C138.028 9.97907 135.263 12.7437 131.79 12.7437ZM126.97 54V18.5564H136.681V54H126.97Z" fill="white"/>
<path d="M190.666 54V35.0731C190.666 29.7566 189.035 26.6376 185.136 26.6376C180.954 26.6376 178.26 29.6857 178.048 36.2073V54H168.336V35.0731C168.336 29.7566 166.706 26.6376 162.807 26.6376C158.554 26.6376 155.718 29.8984 155.718 36.7035V54H146.007V18.5564H155.718V22.597C157.632 19.8324 160.822 17.7767 165.146 17.7767C170.25 17.7767 173.936 20.2577 176.134 24.2983C178.331 20.045 183.152 17.7767 187.121 17.7767C195.628 17.7767 200.377 23.8021 200.377 33.4427V54H190.666Z" fill="white"/>
<path d="M209.279 54V0.834624H218.991V54H209.279Z" fill="white"/>
<path d="M233.137 12.7437C229.805 12.7437 226.969 9.97907 226.969 6.57649C226.969 3.1739 229.805 0.409302 233.137 0.409302C236.61 0.409302 239.375 3.1739 239.375 6.57649C239.375 9.97907 236.61 12.7437 233.137 12.7437ZM228.316 54V18.5564H238.028V54H228.316Z" fill="white"/>
<path d="M20.8333 118.425C13.3193 118.425 7.29388 114.314 7.29388 105.595V91.0629H0.134277V82.5564H7.29388V72.7031H17.0054V82.5564H27.0005V91.0629H17.0054V103.681C17.0054 108.005 18.7776 109.706 23.0308 109.706C24.5195 109.706 25.8663 109.494 27.0005 109.068V117.646C25.3701 118.142 23.5979 118.425 20.8333 118.425Z" fill="white"/>
<path d="M47.8358 118.78C38.4078 118.78 31.1773 110.273 31.1773 100.278C31.1773 90.2831 38.4078 81.7767 47.8358 81.7767C52.727 81.7767 56.4132 84.2577 58.0436 86.5261V82.5564H67.7551V118H58.0436V114.03C56.4132 116.299 52.727 118.78 47.8358 118.78ZM49.8915 109.919C55.279 109.919 58.8233 105.878 58.8233 100.278C58.8233 94.6781 55.279 90.6376 49.8915 90.6376C44.5041 90.6376 40.9597 94.6781 40.9597 100.278C40.9597 105.878 44.5041 109.919 49.8915 109.919Z" fill="white"/>
<path d="M93.5004 118.78C83.2218 118.78 74.8571 110.699 74.8571 100.278C74.8571 89.9287 83.2218 81.7767 93.5004 81.7767C103.779 81.7767 112.144 89.9287 112.144 100.278C112.144 110.699 103.779 118.78 93.5004 118.78ZM93.5004 109.706C98.5334 109.706 102.29 105.737 102.29 100.278C102.29 94.8199 98.5334 90.8502 93.5004 90.8502C88.3966 90.8502 84.6395 94.8199 84.6395 100.278C84.6395 105.737 88.3966 109.706 93.5004 109.706Z" fill="white"/>
<path d="M163.806 118V99.0731C163.806 93.7566 162.176 90.6376 158.277 90.6376C154.095 90.6376 151.401 93.6857 151.188 100.207V118H141.477V99.0731C141.477 93.7566 139.846 90.6376 135.947 90.6376C131.694 90.6376 128.859 93.8984 128.859 100.704V118H119.147V82.5564H128.859V86.597C130.773 83.8324 133.963 81.7767 138.287 81.7767C143.391 81.7767 147.077 84.2577 149.274 88.2983C151.472 84.0451 156.292 81.7767 160.262 81.7767C168.768 81.7767 173.518 87.8021 173.518 97.4427V118H163.806Z" fill="white"/>
<path d="M182.42 118V64.8346H192.131V118H182.42Z" fill="white"/>
<path d="M215.847 118.78C206.419 118.78 199.188 110.273 199.188 100.278C199.188 90.2831 206.419 81.7767 215.847 81.7767C220.738 81.7767 224.424 84.2577 226.054 86.5261V82.5564H235.766V118H226.054V114.03C224.424 116.299 220.738 118.78 215.847 118.78ZM217.902 109.919C223.29 109.919 226.834 105.878 226.834 100.278C226.834 94.6781 223.29 90.6376 217.902 90.6376C212.515 90.6376 208.971 94.6781 208.971 100.278C208.971 105.878 212.515 109.919 217.902 109.919Z" fill="white"/>
<path d="M245.207 118V82.5564H254.919V88.2274C256.124 84.7539 259.739 82.1311 263.709 82.1311C264.772 82.1311 265.765 82.202 266.97 82.5564V92.4097C265.481 91.9135 264.205 91.63 262.575 91.63C257.967 91.63 254.919 95.1743 254.919 101.058V118H245.207Z" fill="white"/>
<path d="M277.995 76.7437C274.663 76.7437 271.828 73.9791 271.828 70.5765C271.828 67.1739 274.663 64.4093 277.995 64.4093C281.468 64.4093 284.233 67.1739 284.233 70.5765C284.233 73.9791 281.468 76.7437 277.995 76.7437ZM273.174 118V82.5564H282.886V118H273.174Z" fill="white"/>
<path d="M292.212 118V82.5564H301.923V86.597C303.837 83.7615 307.452 81.7767 312.06 81.7767C320.637 81.7767 325.741 88.0147 325.741 97.2301V118H316.03V98.8605C316.03 93.7566 313.832 90.6376 309.792 90.6376C305.255 90.6376 301.923 93.8984 301.923 100.704V118H292.212Z" fill="white"/>
<path d="M351.164 133.524C341.098 133.524 334.647 127.782 333.867 120.198H343.366C344.571 123.671 347.194 125.443 351.376 125.443C355.63 125.443 359.387 122.679 359.387 117.078V112.896C357.473 115.519 353.645 117.575 349.108 117.575C339.822 117.575 332.379 109.635 332.379 99.7111C332.379 89.716 339.822 81.7767 349.108 81.7767C353.645 81.7767 357.473 83.7615 359.387 86.5261V82.5564H369.098V115.803C369.098 128.633 360.379 133.524 351.164 133.524ZM351.164 108.785C356.055 108.785 360.166 105.099 360.166 99.7111C360.166 94.2528 356.055 90.6376 351.164 90.6376C346.272 90.6376 342.161 94.2528 342.161 99.7111C342.161 105.099 346.272 108.785 351.164 108.785Z" fill="white"/>
<path d="M383.287 76.7437C379.955 76.7437 377.12 73.9791 377.12 70.5765C377.12 67.1739 379.955 64.4093 383.287 64.4093C386.761 64.4093 389.525 67.1739 389.525 70.5765C389.525 73.9791 386.761 76.7437 383.287 76.7437ZM378.467 118V82.5564H388.178V118H378.467Z" fill="white"/>
<path d="M395.732 118V110.415L412.319 91.3464H395.944V82.5564H424.866V90.2122L408.279 109.21H425.433V118H395.732Z" fill="white"/>
<path d="M448.841 133.524C438.775 133.524 432.324 127.782 431.545 120.198H441.044C442.249 123.671 444.872 125.443 449.054 125.443C453.307 125.443 457.064 122.679 457.064 117.078V112.896C455.15 115.519 451.322 117.575 446.785 117.575C437.499 117.575 430.056 109.635 430.056 99.7111C430.056 89.716 437.499 81.7767 446.785 81.7767C451.322 81.7767 455.15 83.7615 457.064 86.5261V82.5564H466.776V115.803C466.776 128.633 458.057 133.524 448.841 133.524ZM448.841 108.785C453.732 108.785 457.844 105.099 457.844 99.7111C457.844 94.2528 453.732 90.6376 448.841 90.6376C443.95 90.6376 439.839 94.2528 439.839 99.7111C439.839 105.099 443.95 108.785 448.841 108.785Z" fill="white"/>
<path d="M490.534 118.78C481.106 118.78 473.876 110.273 473.876 100.278C473.876 90.2831 481.106 81.7767 490.534 81.7767C495.426 81.7767 499.112 84.2577 500.742 86.5261V82.5564H510.454V118H500.742V114.03C499.112 116.299 495.426 118.78 490.534 118.78ZM492.59 109.919C497.978 109.919 501.522 105.878 501.522 100.278C501.522 94.6781 497.978 90.6376 492.59 90.6376C487.203 90.6376 483.658 94.6781 483.658 100.278C483.658 105.878 487.203 109.919 492.59 109.919Z" fill="white"/>
<path d="M23.6688 181.78C18.7776 181.78 15.0206 179.299 13.3902 177.03V181H3.67864V127.835H13.3902V149.526C15.0206 147.258 18.7776 144.777 23.6688 144.777C33.0968 144.777 40.3273 153.283 40.3273 163.278C40.3273 173.273 33.0968 181.78 23.6688 181.78ZM21.5422 172.919C26.9296 172.919 30.474 168.878 30.474 163.278C30.474 157.678 26.9296 153.638 21.5422 153.638C16.1548 153.638 12.6104 157.678 12.6104 163.278C12.6104 168.878 16.1548 172.919 21.5422 172.919Z" fill="white"/>
<path d="M60.3308 181.78C51.8243 181.78 47.004 175.471 47.004 166.114V145.556H56.7155V164.483C56.7155 169.871 58.4877 172.919 62.7409 172.919C67.0651 172.919 70.0423 169.729 70.0423 162.853V145.556H79.7539V181H70.0423V176.959C68.1284 179.795 64.8676 181.78 60.3308 181.78Z" fill="white"/>
<path d="M102.572 195.815H92.0096L99.4527 179.015L84.5664 145.556H95.1995L104.698 168.524L114.126 145.556H124.83L102.572 195.815Z" fill="white"/>
<path d="M142.433 181.78C133.926 181.78 129.106 175.471 129.106 166.114V145.556H138.817V164.483C138.817 169.871 140.589 172.919 144.843 172.919C149.167 172.919 152.144 169.729 152.144 162.853V145.556H161.856V181H152.144V176.959C150.23 179.795 146.969 181.78 142.433 181.78Z" fill="white"/>
<path d="M171.205 181V145.556H180.916V151.227C182.122 147.754 185.737 145.131 189.706 145.131C190.77 145.131 191.762 145.202 192.967 145.556V155.41C191.479 154.914 190.203 154.63 188.572 154.63C183.965 154.63 180.916 158.174 180.916 164.058V181H171.205Z" fill="white"/>
<path d="M216.327 181.425C208.813 181.425 202.787 177.314 202.787 168.595V154.063H195.628V145.556H202.787V135.703H212.499V145.556H222.494V154.063H212.499V166.681C212.499 171.005 214.271 172.706 218.524 172.706C220.013 172.706 221.36 172.494 222.494 172.068V180.646C220.864 181.142 219.091 181.425 216.327 181.425Z" fill="white"/>
<path d="M274.083 181V162.073C274.083 156.757 272.452 153.638 268.554 153.638C264.371 153.638 261.677 156.686 261.465 163.207V181H251.753V162.073C251.753 156.757 250.123 153.638 246.224 153.638C241.971 153.638 239.135 156.898 239.135 163.704V181H229.424V145.556H239.135V149.597C241.049 146.832 244.239 144.777 248.563 144.777C253.667 144.777 257.353 147.258 259.551 151.298C261.748 147.045 266.569 144.777 270.538 144.777C279.045 144.777 283.794 150.802 283.794 160.443V181H274.083Z" fill="white"/>
<path d="M307.086 181.78C297.658 181.78 290.428 173.273 290.428 163.278C290.428 153.283 297.658 144.777 307.086 144.777C311.977 144.777 315.664 147.258 317.294 149.526V145.556H327.006V181H317.294V177.03C315.664 179.299 311.977 181.78 307.086 181.78ZM309.142 172.919C314.529 172.919 318.074 168.878 318.074 163.278C318.074 157.678 314.529 153.638 309.142 153.638C303.755 153.638 300.21 157.678 300.21 163.278C300.21 168.878 303.755 172.919 309.142 172.919Z" fill="white"/>
<path d="M23.6688 244.78C18.7776 244.78 15.0206 242.299 13.3902 240.03V244H3.67864V190.835H13.3902V212.526C15.0206 210.258 18.7776 207.777 23.6688 207.777C33.0968 207.777 40.3273 216.283 40.3273 226.278C40.3273 236.273 33.0968 244.78 23.6688 244.78ZM21.5422 235.919C26.9296 235.919 30.474 231.878 30.474 226.278C30.474 220.678 26.9296 216.638 21.5422 216.638C16.1548 216.638 12.6104 220.678 12.6104 226.278C12.6104 231.878 16.1548 235.919 21.5422 235.919Z" fill="white"/>
<path d="M63.7334 244.78C52.8876 244.78 45.1609 236.982 45.1609 226.207C45.1609 215.645 53.0294 207.777 63.8042 207.777C74.1538 207.777 82.8729 215.22 82.3058 228.547H54.6598C55.0142 232.729 58.1333 236.344 64.2296 236.344C67.6322 236.344 70.6094 234.926 71.7436 232.445H81.8805C79.8247 239.605 72.736 244.78 63.7334 244.78ZM63.5207 215.645C58.9839 215.645 55.9358 218.197 55.0142 222.167H71.6727C70.5385 217.417 66.7815 215.645 63.5207 215.645Z" fill="white"/>
<path d="M89.3801 244V208.556H99.0917V214.227C100.297 210.754 103.912 208.131 107.882 208.131C108.945 208.131 109.937 208.202 111.142 208.556V218.41C109.654 217.914 108.378 217.63 106.747 217.63C102.14 217.63 99.0917 221.174 99.0917 227.058V244H89.3801Z" fill="white"/>
<path d="M122.168 202.744C118.836 202.744 116 199.979 116 196.576C116 193.174 118.836 190.409 122.168 190.409C125.641 190.409 128.406 193.174 128.406 196.576C128.406 199.979 125.641 202.744 122.168 202.744ZM117.347 244V208.556H127.059V244H117.347Z" fill="white"/>
<path d="M136.384 244V208.556H146.096V212.597C148.01 209.762 151.625 207.777 156.233 207.777C164.81 207.777 169.914 214.015 169.914 223.23V244H160.202V224.86C160.202 219.757 158.005 216.638 153.964 216.638C149.428 216.638 146.096 219.898 146.096 226.704V244H136.384Z" fill="white"/>
<path d="M195.336 259.524C185.271 259.524 178.82 253.782 178.04 246.198H187.539C188.744 249.671 191.367 251.443 195.549 251.443C199.802 251.443 203.559 248.679 203.559 243.078V238.896C201.645 241.519 197.818 243.575 193.281 243.575C183.995 243.575 176.551 235.635 176.551 225.711C176.551 215.716 183.995 207.777 193.281 207.777C197.818 207.777 201.645 209.761 203.559 212.526V208.556H213.271V241.803C213.271 254.633 204.552 259.524 195.336 259.524ZM195.336 234.785C200.228 234.785 204.339 231.099 204.339 225.711C204.339 220.253 200.228 216.638 195.336 216.638C190.445 216.638 186.334 220.253 186.334 225.711C186.334 231.099 190.445 234.785 195.336 234.785Z" fill="white"/>
</svg>
